<svg xmlns="http://www.w3.org/2000/svg" xml:space="preserve" width="500" height="135">
  <path d="M88.589 233.374H26.857c-8.155 0-14.765 6.61-14.765 14.764 0 8.155 6.61 14.766 14.765 14.766 38.188 0 38.188 18.331 76.376 18.331s38.187-18.331 76.376-18.331c38.19 0 38.19 18.331 76.38 18.331l.095-.002.095.002c38.19 0 38.19-18.331 76.38-18.331 38.188 0 38.188 18.331 76.376 18.331s38.187-18.331 76.376-18.331c8.155 0 14.765-6.611 14.765-14.766 0-8.154-6.61-14.764-14.765-14.764H110.678" style="stroke:none;stroke-width:1;stroke-dasharray:none;stroke-linecap:butt;stroke-dashoffset:0;stroke-linejoin:miter;stroke-miterlimit:4;fill:#08aa6e;fill-rule:nonzero;opacity:1" transform="matrix(1 0 0 1.4 -6 -325.487)" vector-effect="non-scaling-stroke"/>
  <path d="M476.614 263.268c-29.73 2.547-32.642 17.967-67.679 17.967-38.187 0-38.187-18.331-76.376-18.331-38.189 0-38.189 18.331-76.38 18.331l-.095-.002-.095.002c-38.189 0-38.189-18.331-76.38-18.331-38.189 0-38.189 18.331-76.376 18.331-35.081 0-37.957-15.459-67.794-17.976-15.782 2.551-27.836 16.233-27.836 32.736 0 18.318 14.85 33.168 33.168 33.168h430.456c18.318 0 33.168-14.85 33.168-33.168.001-16.485-12.025-30.154-27.781-32.727z" style="stroke:none;stroke-width:1;stroke-dasharray:none;stroke-linecap:butt;stroke-dashoffset:0;stroke-linejoin:miter;stroke-miterlimit:4;fill:#d53349;fill-rule:nonzero;opacity:1" transform="matrix(1 0 0 1.4 -6 -325.385)" vector-effect="non-scaling-stroke"/>
</svg>
