<svg xmlns="http://www.w3.org/2000/svg" xml:space="preserve" width="500" height="135">
  <path d="M26.857 329.162v48.106c0 29.412 23.844 53.256 53.257 53.256h351.77c29.413 0 53.257-23.844 53.257-53.256v-48.106H26.857z" style="stroke:none;stroke-width:1;stroke-dasharray:none;stroke-linecap:butt;stroke-dashoffset:0;stroke-linejoin:miter;stroke-miterlimit:4;fill:#f6a230;fill-rule:nonzero;opacity:1" transform="matrix(1 0 0 .89 -6 -248.053)" vector-effect="non-scaling-stroke"/>
  <path d="m272.678 329.161-106.343 57.461-106.343-57.461z" style="stroke:none;stroke-width:1;stroke-dasharray:none;stroke-linecap:butt;stroke-dashoffset:0;stroke-linejoin:miter;stroke-miterlimit:4;fill:#ffe285;fill-rule:nonzero;opacity:1" transform="matrix(1 0 0 1.2 -6.24 -350.871)" vector-effect="non-scaling-stroke"/>
  <path d="M476.614 263.268c-29.73 2.547-32.642 17.967-67.679 17.967-38.187 0-38.187-18.331-76.376-18.331-38.189 0-38.189 18.331-76.38 18.331l-.095-.002-.095.002c-38.189 0-38.189-18.331-76.38-18.331-38.189 0-38.189 18.331-76.376 18.331-35.081 0-37.957-15.459-67.794-17.976-15.782 2.551-27.836 16.233-27.836 32.736 0 18.318 14.85 33.168 33.168 33.168h430.456c18.318 0 33.168-14.85 33.168-33.168.001-16.485-12.025-30.154-27.781-32.727z" style="stroke:none;stroke-width:1;stroke-dasharray:none;stroke-linecap:butt;stroke-dashoffset:0;stroke-linejoin:miter;stroke-miterlimit:4;fill:#68362b;fill-rule:nonzero;opacity:1" transform="matrix(1 0 0 -1.01 -6 333.09)" vector-effect="non-scaling-stroke"/>
</svg>
