<svg xmlns="http://www.w3.org/2000/svg" xml:space="preserve" width="500" height="135">
  <path d="M110.678 233.374h374.549c0-83.892-68.008-151.899-151.899-151.899H178.672c-83.89 0-151.899 68.007-151.899 151.899h61.814" style="stroke:none;stroke-width:1;stroke-dasharray:none;stroke-linecap:butt;stroke-dashoffset:0;stroke-linejoin:miter;stroke-miterlimit:4;fill:#f6a230;fill-rule:nonzero;opacity:1" transform="matrix(1 0 0 .88 -6 -71.03)" vector-effect="non-scaling-stroke"/>
  <path d="M0 15.208V0h23.749v15.208z" style="stroke:none;stroke-width:1;stroke-dasharray:none;stroke-linecap:butt;stroke-dashoffset:0;stroke-linejoin:miter;stroke-miterlimit:4;fill:#53180f;fill-rule:nonzero;opacity:1" transform="matrix(1 0 0 1.16 162.8 30.134)" vector-effect="non-scaling-stroke"/>
  <path d="M0 15.208V0h23.749v15.208z" style="stroke:none;stroke-width:1;stroke-dasharray:none;stroke-linecap:butt;stroke-dashoffset:0;stroke-linejoin:miter;stroke-miterlimit:4;fill:#53180f;fill-rule:nonzero;opacity:1" transform="matrix(1 0 0 1.16 200.47 68.564)" vector-effect="non-scaling-stroke"/>
  <path d="M0 15.208V0h23.749v15.208z" style="stroke:none;stroke-width:1;stroke-dasharray:none;stroke-linecap:butt;stroke-dashoffset:0;stroke-linejoin:miter;stroke-miterlimit:4;fill:#53180f;fill-rule:nonzero;opacity:1" transform="matrix(1 0 0 1.16 125.13 68.564)" vector-effect="non-scaling-stroke"/>
  <path d="M0 15.208V0h23.749v15.208z" style="stroke:none;stroke-width:1;stroke-dasharray:none;stroke-linecap:butt;stroke-dashoffset:0;stroke-linejoin:miter;stroke-miterlimit:4;fill:#53180f;fill-rule:nonzero;opacity:1" transform="matrix(1 0 0 1.16 351.13 68.564)" vector-effect="non-scaling-stroke"/>
  <path d="M0 15.208V0h23.749v15.208z" style="stroke:none;stroke-width:1;stroke-dasharray:none;stroke-linecap:butt;stroke-dashoffset:0;stroke-linejoin:miter;stroke-miterlimit:4;fill:#53180f;fill-rule:nonzero;opacity:1" transform="matrix(1 0 0 1.16 275.8 68.564)" vector-effect="non-scaling-stroke"/>
  <path d="M0 15.208V0h23.75v15.208z" style="stroke:none;stroke-width:1;stroke-dasharray:none;stroke-linecap:butt;stroke-dashoffset:0;stroke-linejoin:miter;stroke-miterlimit:4;fill:#53180f;fill-rule:nonzero;opacity:1" transform="matrix(1 0 0 1.16 238.12 30.134)" vector-effect="non-scaling-stroke"/>
  <path d="M0 15.208V0h23.749v15.208z" style="stroke:none;stroke-width:1;stroke-dasharray:none;stroke-linecap:butt;stroke-dashoffset:0;stroke-linejoin:miter;stroke-miterlimit:4;fill:#53180f;fill-rule:nonzero;opacity:1" transform="matrix(1 0 0 1.16 313.46 30.134)" vector-effect="non-scaling-stroke"/>
</svg>
