<svg xmlns="http://www.w3.org/2000/svg" xml:space="preserve" width="800" height="800">
  <path d="M448.539 29.43c-79.022-.675-159.177 44.26-183.838 120.188-76.189-11.372-199.61 54.195-150.632 142.206 27.429 54.354-81.862 44.366-86.105 103.133-36.093 72.586 42.168 148.832 112.318 162.336 65.195 17.862 47.725 121.968 115.108 148.083 66.09 52.882 158.093 70.925 234.62 44.107 62.11 13.037 100.198 86.732 169.747 77.24 109.102 9.168 203.777-82.897 202.78-190.893 11.343-68.006-61.448-143.006 18.197-182.592 67.568-65.267 34.627-187.219-41.195-241.015-52.644-39.265-119.368-56.255-182.53-53.949-30.061-84.185-125.021-131.197-208.47-128.843z" style="stroke:none;stroke-width:.3;stroke-dasharray:none;stroke-linecap:round;stroke-dashoffset:0;stroke-linejoin:miter;stroke-miterlimit:4;fill:#ffffea;fill-rule:nonzero;opacity:1" transform="matrix(.89 0 0 1 -17.426 -29.25)" vector-effect="non-scaling-stroke"/>
</svg>
