<svg xmlns="http://www.w3.org/2000/svg" xml:space="preserve" width="1024" height="1024">
  <path d="M0-95.522c52.728 0 95.522 42.794 95.522 95.522 0 52.728-42.794 95.522-95.522 95.522-52.728 0-95.522-42.794-95.522-95.522 0-52.728 42.794-95.522 95.522-95.522z" style="stroke:#1fe559;stroke-width:0;stroke-dasharray:none;stroke-linecap:butt;stroke-dashoffset:0;stroke-linejoin:miter;stroke-miterlimit:4;fill:#382d2d;fill-rule:nonzero;opacity:1" transform="matrix(5.36 0 0 5.36 512 512)" vector-effect="non-scaling-stroke"/>
  <path d="M353.2 203.1h-39.6c-3.7 0-6.7 3-6.7 6.7v1.3c0 3.7 3 6.7 6.7 6.7h39.6v11.7h-61.1c-3.7 0-6.7 3-6.7 6.7v1.3c0 3.7 3 6.7 6.7 6.7h61v17.2c-41.8 1.1-80.9 11.1-110.7 28.6-33.1 19.3-51.2 45.4-51.2 73.4 0 28.1 18.1 54.1 51.1 73.4 31.7 18.6 73.7 28.8 118.3 28.8 44.5 0 86.5-10.2 118.3-28.8 32.9-19.3 51.1-45.4 51.1-73.4 0-28.1-18.1-54.1-51.1-73.3-30-17.6-69.1-27.7-111-28.7v-17.1h61c3.7 0 6.7-3 6.7-6.7v-1.3c0-3.7-3-6.7-6.7-6.7h-61v-11.7h39.6c3.7 0 6.7-3 6.7-6.7v-1.3c0-3.7-3-6.7-6.7-6.7h-39.6v-10.6c0-3.7-3-6.7-6.7-6.7h-1.3c-3.7 0-6.7 3-6.7 6.7v10.5zm162 160.3c0 48.1-69.4 87.3-154.7 87.3-85.3 0-154.7-39.2-154.7-87.3 0-48.1 69.4-87.3 154.7-87.3 85.3 0 154.7 39.2 154.7 87.3z" style="stroke:none;stroke-width:1;stroke-dasharray:none;stroke-linecap:butt;stroke-dashoffset:0;stroke-linejoin:miter;stroke-miterlimit:4;fill:#000;fill-rule:nonzero;opacity:1" transform="matrix(1.42 0 0 1.42 .09 .8)" vector-effect="non-scaling-stroke"/>
  <path d="M261.8 319.9c-14.3 0-28 3.8-28 35.6v18.3c0 32.7 12.2 37 28 37s28-4.3 28-37v-18.3c0-31.9-13.8-35.6-28-35.6zm10.3 54c0 21.3-3.3 24.3-10.2 24.3-6.9 0-10.2-3.1-10.2-24.3v-18.3c0-18.8 3.3-22.9 10.2-22.9 6.9 0 10.2 4.2 10.2 22.9v18.3zm95.8-43.3v69.5c0 6.1 3 8.7 9.2 8.7h34c6.4 0 8.9-3.2 8.9-7.2 0-3.9-2.5-7.2-8.9-7.2H385v-23.5h23.7c6.4 0 8.9-3.3 8.9-7.3 0-3.9-2.5-7.2-8.9-7.2H385v-20h25.3c6.4 0 8.9-3.3 8.9-7.3 0-3.9-2.6-7.2-8.9-7.2h-33.2c-6.3 0-9.2 2.7-9.2 8.7zm89.7 80.2c15.8 0 28-4.3 28-37v-18.3c0-31.9-13.8-35.6-28-35.6-14.3 0-28 3.8-28 35.6v18.3c0 32.7 12.2 37 28 37zm-10.2-55.2c0-18.8 3.3-22.9 10.2-22.9 6.9 0 10.2 4.2 10.2 22.9v18.3c0 21.3-3.3 24.3-10.2 24.3-6.9 0-10.2-3.1-10.2-24.3v-18.3zm-107.9 48.3c2.1 5.7 6 7 10.1 5.6 4.1-1.3 6.5-4.6 4.3-10.4l-12-33c1.3-.8 3.5-2.3 4.1-2.5 1.1-.7 2.2-1.6 3.3-2.5 4-3.3 5.8-8.3 5.8-16.6 0-12.3-5.2-22.3-20.6-22.3H311c-6.2 0-9.2 2.6-9.2 8.7V402c.3 4.5 4 8 8.5 8s8.2-3.5 8.5-8v-31.1h8.6l12.1 33zm-13.9-45h-6.5v-24.6h7.4c8.1 0 10.9 3.6 10.9 12.3 0 9.4-4.9 12.2-11.8 12.3zM389.8 669c.3-3-1.3-6-4-7.4-2.7-1.4-6-1.2-8.4.6-2.4 1.8-3.6 5-2.9 7.9l1.6 22.4c0 4.6 3.6 8.3 8.2 8.4 4.5-.7 7.6-4.9 7.1-9.5l-1.6-22.4zm21.3-2.7c0-3-1.7-5.8-4.5-7.1-2.8-1.3-6-.8-8.3 1.2-2.3 2-3.2 5.2-2.4 8.1l3.3 22.2c.3 4.5 4.2 8 8.8 7.8 4.4-1.1 7.2-5.5 6.4-10l-3.3-22.2zm21.4-4.3c-.2-3-2.2-5.7-5-6.7-2.8-1.1-6.1-.4-8.2 1.8-2.1 2.2-2.8 5.4-1.7 8.2l4.7 21.9c.6 4.5 4.7 7.7 9.3 7.2 4.3-1.4 6.8-6 5.6-10.5l-4.7-21.9zm20.9-5.8c-.4-3-2.5-5.6-5.4-6.5-2.9-.9-6.1 0-8.1 2.3s-2.5 5.6-1.2 8.4l6.2 21.6c.9 4.5 5.3 7.4 9.8 6.5 4.3-1.6 6.5-6.3 4.9-10.7l-6.2-21.6zm20.4-7.3c-.6-3-2.9-5.4-5.9-6.1-3-.7-6.1.4-7.9 2.9-1.8 2.4-2.1 5.7-.6 8.4l7.7 21.1c1.2 4.4 5.8 7 10.2 5.8 4.2-1.9 6-6.8 4.2-11l-7.7-21.1zm29.1 12-9.1-20.5c-.8-3-3.2-5.2-6.3-5.7-3-.5-6.1.9-7.7 3.5-1.7 2.6-1.6 5.9 0 8.5l9.1 20.5c1.6 4.3 6.2 6.5 10.6 5.1 4-2.2 5.4-7.2 3.3-11.2l.1-.2zm10.1-30.3c-1-2.9-3.6-4.9-6.6-5.1-3-.3-5.9 1.3-7.4 3.9-1.5 2.7-1.3 5.9.5 8.4l10.6 19.8c1.9 4.2 6.7 6.1 10.9 4.3 3.7-2.5 4.9-7.6 2.5-11.5L513 630.6zm30.4 7.6-11.9-19.1c-1.3-2.7-4-4.5-7-4.5s-5.7 1.7-7 4.4c-1.3 2.7-1 5.9.9 8.2l11.9 19c2.1 4 7.1 5.6 11.2 3.5 3.7-2.7 4.4-7.9 1.9-11.5zm5.8-31.7c-1.4-2.7-4.3-4.4-7.3-4.2-3.1.2-5.7 2.1-6.8 5-1.1 2.9-.4 6.1 1.7 8.3l13.1 18.2c2.4 3.9 7.5 5.1 11.4 2.7 3.5-3 3.9-8.2 1-11.8l-13.1-18.2zm16.8-13.7c-1.6-2.6-4.5-4.1-7.6-3.7-3 .4-5.6 2.5-6.5 5.4-.9 2.9 0 6.1 2.3 8.1l14.4 17.2c2.7 3.7 7.8 4.6 11.5 2 3.3-3.3 3.3-8.5.2-11.8L566 592.8zm15.6-14.8c-1.8-2.5-4.8-3.7-7.8-3.1-3 .6-5.3 2.9-6 5.8-.7 3 .4 6.1 2.8 7.9l15.6 16c2.9 3.5 8.1 4 11.6 1.1 3.1-3.3 2.7-8.6-.6-11.6L581.6 578zm31.4-1-16.7-15c-1.9-2.4-5.1-3.4-8-2.6-3 .8-5.2 3.3-5.6 6.3-.5 3 .9 6 3.4 7.7l16.7 15c3.2 3.3 8.4 3.4 11.7.3 2.7-3.7 2-8.9-1.5-11.7zm14.5-18.1-17.7-13.8c-2.1-2.2-5.3-3-8.2-2-2.9 1-4.9 3.6-5.2 6.7-.3 3 1.3 6 4 7.4l17.7 13.8c3.4 3 8.6 2.8 11.7-.5 2.5-3.9 1.4-9-2.3-11.6zm13.2-19.2-18.6-12.6c-2.2-2-5.5-2.6-8.3-1.4-2.8 1.2-4.6 3.9-4.7 7-.1 3 1.7 5.8 4.4 7.1l18.6 12.5c3.6 2.8 8.8 2.2 11.7-1.3 2.2-3.9.9-8.9-3.1-11.3zm11.9-20-19.4-11.2c-2.4-1.9-5.7-2.3-8.4-.9s-4.4 4.2-4.2 7.3c.2 3.1 2.1 5.7 4.9 6.8l19.4 11.2c3.8 2.6 8.9 1.6 11.5-2.1 2-4.2.3-9.1-3.8-11.1zM663 499l-20.2-9.8c-2.5-1.7-5.8-1.9-8.4-.3-2.6 1.6-4.1 4.5-3.7 7.6.4 3 2.5 5.6 5.4 6.5l20.2 9.8c3.9 2.3 9 1 11.3-2.9 1.7-4.3-.4-9.1-4.6-10.9zm9-21.5-20.8-8.4c-2.6-1.6-5.9-1.5-8.4.3s-3.7 4.8-3.2 7.8c.6 3 2.9 5.4 5.8 6.1l20.8 8.4c4.1 2 9.1.4 11.1-3.7 1.4-4.3-1-9-5.3-10.5zm7.4-22-21.3-7c-2.7-1.3-6-1-8.3.9-2.4 1.9-3.4 5-2.6 8 .8 2.9 3.2 5.2 6.2 5.7l21.3 6.9c4.2 1.7 9.1-.3 10.9-4.4.9-4.4-1.8-8.9-6.2-10.1zm5.9-22.4-21.8-5.5c-2.8-1.2-6.1-.6-8.3 1.4-2.2 2.1-3 5.3-2 8.2 1 2.9 3.6 4.9 6.7 5.2l21.8 5.4c4.3 1.4 9-.9 10.5-5.2.6-4.5-2.4-8.7-6.9-9.5zm4.3-22.9-22.1-3.9c-2.9-1-6.1-.2-8.2 2-2.1 2.2-2.7 5.5-1.5 8.3 1.2 2.8 3.9 4.7 7 4.7l22.1 3.9c4.4 1.1 8.9-1.5 10.1-5.9.5-4.5-2.8-8.5-7.4-9.1zm2.8-22.9-.1-.2-22.3-2.4c-3-.8-6.1.2-8.1 2.6-1.9 2.4-2.3 5.7-.9 8.4s4.3 4.4 7.4 4.2l22.3 2.4c4.5.9 8.9-2 9.8-6.5.1-4.6-3.5-8.4-8.1-8.5zm1-23.4-22.4-.8c-3-.6-6.1.7-7.8 3.2-1.8 2.5-1.9 5.8-.3 8.4 1.6 2.6 4.5 4.1 7.6 3.7l22.4.8c4.5.5 8.6-2.7 9.2-7.3-.3-4.5-4.1-8.1-8.7-8zm-.6-23.2-22.4.8c-3-.4-6 1.1-7.6 3.7-1.6 2.6-1.4 5.9.3 8.4 1.8 2.5 4.8 3.7 7.8 3.2l22.4-.8c4.6.2 8.4-3.4 8.7-7.9-.5-4.5-4.6-7.8-9.2-7.4zm-2.2-23 .1-.2-22.3 2.4c-3-.1-5.9 1.5-7.3 4.2-1.4 2.7-1 6 .9 8.4 1.9 2.4 5 3.4 8 2.6l22.3-2.4c4.5-.2 8.1-3.9 8.1-8.5-.9-4.5-5.3-7.4-9.8-6.5zm-3.7-23.1-22.1 3.9c-3.1 0-5.8 1.9-7 4.7-1.2 2.8-.6 6.1 1.5 8.3 2.1 2.2 5.3 3 8.2 2l22.1-3.9c4.5-.4 7.9-4.4 7.5-9-1.2-4.3-5.7-7-10.2-6zm-5.3-22.6-21.8 5.4c-3 .3-5.7 2.3-6.6 5.2-.9 2.9-.2 6.1 2.1 8.2 2.2 2.1 5.5 2.7 8.3 1.4l21.8-5.4c4.5-.8 7.5-5 6.8-9.5-1.5-4.3-6.2-6.6-10.6-5.3zm-6.9-22.2-21.3 7c-3.1.4-5.6 2.6-6.4 5.6-.8 3 .2 6.2 2.7 8.1 2.4 1.9 5.8 2.2 8.5.7l21.3-6.9c4.3-1.1 7.1-5.4 6.1-9.8-1.8-4.2-6.6-6.2-10.9-4.5v-.2zm-29.3-13.2c-3 .7-5.3 3.1-5.8 6.1-.6 3 .7 6.1 3.2 7.8 2.5 1.8 5.8 1.9 8.4.3l20.8-8.4c4.3-1.4 6.7-6 5.5-10.3-2.2-4.1-7.1-5.8-11.3-3.9l-20.8 8.4zm-9.3-19.6c-2.9.9-5 3.4-5.4 6.5-.4 3.1 1.1 6 3.7 7.6 2.6 1.6 5.9 1.5 8.4-.3L663 221c4.2-1.7 6.3-6.5 4.7-10.8-2.4-3.9-7.5-5.2-11.4-3l-20.2 9.8zm-10.6-18.9c-2.8 1.1-4.8 3.8-4.9 6.8-.1 3 1.5 5.9 4.2 7.3 2.7 1.4 6 1.1 8.4-.8l19.4-11.2c4.1-2 5.9-6.9 4-11-2.7-3.8-7.8-4.8-11.7-2.3l-19.4 11.2zm-16.1-10.9c.1 3 1.9 5.7 4.6 6.9 2.7 1.2 5.9.7 8.2-1.2l18.6-12.6c4-2.2 5.4-7.3 3.3-11.3-2.9-3.6-8.1-4.2-11.7-1.3l-.2-.2-18.6 12.6c-2.7 1.4-4.3 4.1-4.2 7.1zm-12.9-17c.2 3 2.3 5.7 5.2 6.7 2.9 1 6.1.2 8.2-2l17.7-13.8c3.8-2.6 4.8-7.6 2.4-11.5-3.1-3.3-8.4-3.6-11.8-.6l-17.7 13.8c-2.7 1.5-4.2 4.4-4 7.4zm-13.9-15.9c.5 3 2.7 5.5 5.6 6.3 3 .8 6.1-.2 8-2.6l16.7-15c3.6-2.8 4.3-8 1.5-11.6-3.3-3.2-8.5-3-11.7.2l-16.7 15c-2.6 1.7-3.9 4.7-3.4 7.7zm-14.9-15.1c.7 2.9 3.1 5.3 6.1 5.9 3 .6 6.1-.7 7.8-3.2l15.6-16.1c3.4-3.1 3.7-8.2.8-11.7-3.6-2.8-8.8-2.3-11.8 1.1l-15.6 16.1c-2.4 1.8-3.6 5-2.9 7.9zm-15.9-13.8c.9 2.9 3.4 5.1 6.5 5.5 3.1.4 6.1-1.1 7.6-3.8l14.4-17.2c3.2-3.2 3.2-8.5 0-11.7-3.8-2.6-9-1.8-11.7 1.9l-14.4 17.2c-2.4 2-3.3 5.2-2.4 8.1zm-16.6-12.8c1.1 2.9 3.8 4.8 6.8 5 3.1.2 5.9-1.5 7.3-4.2l13.1-18.1c2.9-3.5 2.5-8.7-.9-11.7-3.9-2.4-9-1.2-11.5 2.6l-13.1 18.1c-2.2 2.2-2.8 5.4-1.7 8.3zm-17.6-11.7c1.3 2.7 4 4.4 7 4.4s5.7-1.8 7-4.5l11.8-19.1c2.7-3.7 1.9-8.8-1.7-11.6-4.1-2.1-9.1-.5-11.3 3.6l-11.9 19c-1.9 2.3-2.2 5.5-.9 8.2zm-18.7-10.2c1.5 2.7 4.4 4.2 7.4 3.9 3-.3 5.6-2.3 6.6-5.1l10.5-19.8c2.4-3.9 1.3-8.9-2.5-11.4-4.1-1.8-9 .1-10.9 4.2l-10.6 19.8c-1.8 2.4-2 5.7-.5 8.4zm-19.2-9c1.7 2.6 4.7 3.9 7.7 3.4s5.5-2.7 6.3-5.6l9.1-20.5c2.1-4 .7-9-3.3-11.2-4.2-1.5-8.9.7-10.6 5l-9.2 20.5c-1.7 2.6-1.7 5.9 0 8.4zm-19.6-7.6c1.8 2.4 4.9 3.6 7.9 2.9 3-.7 5.3-3.1 5.9-6.1l7.7-21.1c1.8-4.2 0-9-4.1-11-4.5-1.1-9 1.4-10.3 5.8l-7.7 21.1c-1.5 2.7-1.2 6 .6 8.4zm-12-3.9c2.9-.9 5.1-3.4 5.4-6.5l6.2-21.6c1.5-4.3-.6-9.1-4.9-10.7-4.5-.8-8.9 2.1-9.8 6.5l-6.2 21.6c-1.3 2.8-.8 6 1.2 8.4 2 2.3 5.2 3.2 8.1 2.3zm-20.8-5.5c2.9-1.1 4.8-3.7 5-6.7l4.7-22c1.3-4.4-1.2-8.9-5.6-10.3-4.3-.7-8.6 2.4-9.3 7l-4.7 22c-1.1 2.8-.4 6.1 1.7 8.2 2.1 2.1 5.4 2.9 8.2 1.8zM406.7 61c2.8-1.3 4.5-4.1 4.4-7.2l3.3-22.2c.9-4.4-1.9-8.8-6.3-9.8-4.5-.3-8.5 3.1-8.8 7.6L396 51.6c-.9 2.9 0 6.1 2.3 8.2 2.3 2 5.6 2.5 8.4 1.2zm-29.3-3.4c2.4 1.8 5.7 2 8.4.6s4.2-4.3 4-7.4l1.6-22.4c.6-4.5-2.4-8.7-6.9-9.4-4.6.1-8.3 3.9-8.4 8.4l-1.6 22.4c-.6 3 .5 6 2.9 7.8zm-21.1-.3c2.6 1.6 5.8 1.6 8.4 0 2.6-1.6 3.9-4.6 3.5-7.6V27.2c.3-4.5-3.1-8.5-7.6-8.9-4.6.3-8 4.3-7.8 8.9v22.5c-.4 3 .9 6 3.5 7.6zm-25.1-6.4c-.3 3 1.3 6 3.9 7.5 2.7 1.5 6 1.3 8.4-.6 2.4-1.8 3.6-4.9 2.9-7.9l-1.6-22.4c0-4.6-3.6-8.3-8.2-8.4-4.4.7-7.5 4.9-7 9.4l1.6 22.4zm-21.3 2.8c0 3 1.7 5.8 4.5 7.1 2.8 1.3 6 .8 8.3-1.2 2.3-2 3.2-5.2 2.3-8.1l-3.3-22.1c-.3-4.5-4.2-8-8.8-7.8-4.3 1-7.1 5.4-6.3 9.8l3.3 22.3zM288.5 58c.2 3 2.2 5.7 5 6.7 2.8 1.1 6.1.4 8.2-1.8 2.1-2.2 2.8-5.4 1.7-8.2l-4.7-22c-.6-4.5-4.8-7.7-9.3-7.2-4.3 1.3-6.9 6-5.6 10.5l4.7 22zm-20.9 5.7c.4 3 2.5 5.6 5.4 6.5 2.9.9 6.1 0 8.1-2.3s2.5-5.6 1.2-8.4l-6.2-21.6c-.9-4.5-5.3-7.4-9.8-6.5-4.2 1.6-6.4 6.4-4.9 10.7l6.2 21.6zm-20.5 7.2c.6 3 2.9 5.4 5.9 6.1 3 .7 6.1-.4 7.9-2.9 1.8-2.4 2.1-5.7.6-8.4l-7.7-21.1c-1.3-4.4-5.8-7-10.2-5.8-4.1 1.9-5.9 6.8-4.1 11l7.6 21.1zM218.2 59l9.1 20.5c.8 3 3.2 5.2 6.3 5.6 3 .5 6-.9 7.7-3.4 1.7-2.6 1.7-5.9 0-8.4l-9.2-20.5c-1.6-4.3-6.2-6.5-10.6-5.1-4 2.2-5.4 7.2-3.3 11.3zM208 89.5c1 2.9 3.6 4.9 6.6 5.1 3 .2 5.9-1.3 7.4-3.9 1.5-2.7 1.3-5.9-.5-8.4L211 62.6c-1.9-4.2-6.7-6.1-10.9-4.3-3.9 2.4-5 7.5-2.6 11.4L208 89.5zm-18.4 11.3c1.3 2.7 4 4.4 7 4.4s5.7-1.7 7-4.3c1.3-2.7 1-5.8-.9-8.2l-11.9-19c-2.1-4-7.1-5.6-11.1-3.6-3.9 2.6-4.7 7.9-2 11.6l11.9 19.1zm-17.8 12.6c1.4 2.7 4.3 4.3 7.3 4.1 3-.2 5.7-2.1 6.8-4.9 1.1-2.8.4-6.1-1.7-8.2l-13.1-18.1c-2.4-3.9-7.5-5.1-11.4-2.8-3.4 3-3.9 8.2-1 11.7l13.1 18.2zm-31.1-3.5 14.4 17.2c1.6 2.7 4.5 4.2 7.6 3.8 3.1-.4 5.6-2.5 6.5-5.5.9-3-.1-6.2-2.4-8.1l-14.4-17.2c-2.6-3.7-7.8-4.7-11.5-2.1-3.2 3.3-3.2 8.5 0 11.7l-.2.2zm-1.3 32.1c1.8 2.5 4.8 3.7 7.8 3.1 3-.6 5.3-2.9 6-5.8.7-2.9-.4-6.1-2.8-7.9l-15.6-16.1c-2.9-3.5-8.1-4-11.7-1.2-3 3.4-2.6 8.7.7 11.8l15.6 16.1zm-31.4 1 16.7 15c1.9 2.4 5.1 3.4 8 2.6 3-.8 5.2-3.3 5.6-6.3.5-3-.9-6-3.4-7.7l-16.8-15c-3.2-3.3-8.4-3.4-11.7-.3-2.7 3.6-2 8.8 1.6 11.7zm-14.5 18.1 17.7 13.8c2.1 2.2 5.3 3 8.2 2 2.9-1 4.9-3.6 5.2-6.7.3-3-1.3-6-4-7.4L103 149.1c-3.4-3-8.6-2.8-11.7.5-2.5 3.8-1.5 8.9 2.2 11.5zm-13.2 19.1 18.6 12.6c2.2 2.1 5.5 2.7 8.3 1.5 2.8-1.2 4.7-3.9 4.7-7 .1-3.1-1.7-5.9-4.5-7.2l-18.7-12.6c-3.6-2.8-8.7-2.2-11.6 1.3-2.2 4.1-.7 9.1 3.2 11.4zm-11.9 20 19.4 11.2c2.4 1.9 5.7 2.3 8.4.9s4.4-4.3 4.2-7.3c-.2-3-2.1-5.7-5-6.8L76 187c-3.8-2.5-8.9-1.6-11.5 2.1-1.9 4.1-.1 9 3.9 11.1zM58 220.9l20.2 9.8c2.5 1.7 5.8 1.8 8.4.3 2.6-1.6 4.1-4.5 3.7-7.6-.4-3-2.5-5.6-5.4-6.5l-20.2-9.8c-3.9-2.3-9-1-11.3 2.9-1.7 4.4.4 9.2 4.6 10.9zm-8.9 21.5 20.8 8.4c2.6 1.5 5.9 1.4 8.4-.3s3.7-4.8 3.2-7.8c-.6-3-2.8-5.4-5.7-6.1l-20.9-8.4c-4.1-2-9.1-.3-11.1 3.8-1.5 4.4.9 9.1 5.3 10.4zm-7.5 22 21.3 6.9c2.7 1.4 6 1.1 8.4-.9 2.4-1.9 3.4-5.1 2.6-8-.8-2.9-3.3-5.2-6.3-5.6l-21.4-6.9c-4.2-1.7-9.1.3-10.9 4.4-.9 4.5 1.8 8.9 6.3 10.1zm-5.9 22.5 21.8 5.4c2.8 1.2 6.1.6 8.3-1.4 2.2-2 3-5.3 2-8.2-1-2.9-3.6-4.9-6.7-5.2l-21.8-5.4c-4.3-1.4-9 .9-10.5 5.2-.6 4.5 2.4 8.8 6.9 9.6zm-4.3 22.8 22.1 4.1c2.8.7 5.8-.2 7.7-2.4 1.9-2.2 2.4-5.3 1.4-8s-3.6-4.6-6.5-4.8l-22.1-4c-4.4-1.1-8.9 1.6-10 6-.5 4.6 2.9 8.7 7.4 9.1zm-2.7 23.1 22.3 2.4c2.9.8 6.1-.3 8-2.6 1.9-2.3 2.3-5.6.9-8.4-1.4-2.7-4.2-4.4-7.3-4.2l-22.3-2.3c-4.5-.9-8.9 2-9.8 6.5 0 4.5 3.6 8.3 8.2 8.6zM27.6 356l22.4.8c3 .6 6.1-.7 7.8-3.2 1.8-2.5 1.9-5.8.3-8.4-1.6-2.6-4.5-4.1-7.6-3.7l-22.4-.8c-4.5-.5-8.6 2.7-9.2 7.3.3 4.5 4.2 8.1 8.7 8zm.6 23.1 22.4-.8c3 .4 6-1.1 7.6-3.7 1.6-2.6 1.4-5.9-.3-8.4-1.8-2.5-4.8-3.7-7.8-3.2l-22.4.8c-4.5-.2-8.4 3.3-8.7 7.9.5 4.6 4.6 7.9 9.2 7.4zm2.2 22.9-.1.4 22.3-2.4c3 .1 5.9-1.5 7.3-4.2 1.4-2.7 1-6-.9-8.4-1.9-2.4-5-3.4-8-2.6l-22.3 2.4c-4.5.2-8.1 3.8-8.1 8.3.9 4.5 5.3 7.4 9.8 6.5zm3.7 23.3 22-3.9c3-.1 5.7-1.9 6.9-4.7 1.2-2.8.6-6-1.4-8.3-2.1-2.2-5.2-3.1-8.1-2.1l-22.1 3.9c-4.5.5-7.8 4.5-7.5 9 1.2 4.5 5.7 7.2 10.2 6.1zm5.3 22.5 21.8-5.4c3.1-.3 5.7-2.3 6.7-5.2 1-2.9.2-6.1-2-8.2-2.2-2.1-5.5-2.7-8.3-1.4L35.8 433c-4.5.8-7.5 5-6.8 9.5 1.3 4.3 6 6.7 10.4 5.3zm28.2 15.4c3-.5 5.4-2.7 6.2-5.6.8-2.9-.2-6.1-2.6-8-2.4-1.9-5.6-2.3-8.4-.9l-21.3 7c-4.3 1.1-7.1 5.4-6.1 9.8.8 2.1 2.4 3.7 4.4 4.6 2.1.8 4.4.8 6.5 0l21.3-6.9zm8.1 20.2c3-.7 5.3-3.1 5.9-6.1.6-3-.6-6.1-3.2-7.8-2.6-1.7-5.8-1.9-8.4-.3l-20.8 8.4c-4.3 1.4-6.7 6-5.4 10.4 2 4 6.9 5.7 11 3.8l20.9-8.4zm9.2 19.5c3-.8 5.2-3.3 5.7-6.4.4-3.1-1-6.1-3.7-7.7-2.7-1.6-6-1.5-8.5.4L58.2 499c-2.1.8-3.8 2.4-4.7 4.4-.9 2-1 4.4-.1 6.5 2.3 3.9 7.3 5.2 11.3 2.8l20.2-9.8zm10.6 18.9c2.8-1.1 4.8-3.8 4.9-6.8.1-3-1.5-5.9-4.2-7.3-2.7-1.4-6-1.1-8.4.8l-19.5 11.1c-4.1 2-5.8 6.9-3.9 11 2.6 3.8 7.8 4.7 11.5 2.2l.2.2 19.4-11.2zm16.4 10.7c-.1-3.1-1.9-5.8-4.7-7-2.8-1.2-6.1-.6-8.3 1.5l-18.6 12.6c-4 2.2-5.4 7.2-3.3 11.2 1.4 1.8 3.4 2.9 5.6 3.2 2.2.3 4.4-.3 6.2-1.7l18.6-12.6c2.8-1.3 4.5-4.1 4.5-7.2zm12.8 17.2c-.3-3-2.3-5.7-5.2-6.7-2.9-1-6.1-.2-8.2 2l-17.7 13.9c-3.8 2.5-4.8 7.6-2.4 11.4 3.1 3.4 8.3 3.6 11.8.6l17.7-13.8c2.7-1.5 4.2-4.4 4-7.4zm13.9 15.8c-.4-3.1-2.7-5.6-5.8-6.4-3-.8-6.3.4-8.1 2.9L108 577c-3.6 2.8-4.3 8-1.6 11.6 3.4 3.1 8.6 3 11.8-.3l16.7-15c2.7-1.6 4.2-4.7 3.7-7.8zm14.7 15.1c-.7-3-3.1-5.3-6.1-5.9-3-.6-6.1.7-7.8 3.2L123.8 594c-3.4 3-3.7 8.2-.8 11.7 3.6 2.9 8.8 2.4 11.8-1.1l15.6-16.1c2.4-1.8 3.6-5 2.9-7.9zm15.8 13.9c-.9-2.9-3.4-5.1-6.5-5.4-3-.4-6 1.1-7.6 3.7L140.7 610c-3.2 3.2-3.2 8.5 0 11.7 3.7 2.6 8.9 1.8 11.6-1.9h.1l14.4-17.2c2.3-2 3.2-5.2 2.3-8.1zm16.8 12.9c-1.1-2.8-3.8-4.8-6.8-4.9-3-.2-5.9 1.4-7.3 4.1l-13.1 18.1c-2.9 3.5-2.5 8.7.9 11.7 3.9 2.4 9 1.2 11.5-2.7l13.1-18.1c2.1-2.2 2.8-5.4 1.7-8.2zm17.5 11.6c-1.3-2.7-4-4.4-7-4.4s-5.7 1.8-7 4.5l-11.9 19.1c-2.7 3.7-1.9 8.8 1.7 11.6 4.1 2.1 9.1.5 11.2-3.5h.2l11.9-19.1c1.9-2.3 2.2-5.5.9-8.2zm18.7 10.3c-1.5-2.7-4.4-4.2-7.4-3.9-3 .3-5.6 2.3-6.6 5.1l-10.5 19.9c-2.4 3.9-1.3 8.9 2.5 11.4 4.2 1.8 9.1-.1 10.9-4.2v-.1l10.6-19.8c1.8-2.4 2-5.7.5-8.4zm19.1 9c-1.6-2.5-4.7-3.9-7.7-3.4s-5.5 2.7-6.3 5.6l-9.1 20.5c-2.1 4-.7 9 3.3 11.2 4.3 1.5 9-.7 10.6-5h.1l9.1-20.5c1.6-2.6 1.6-5.9 0-8.4zm19.8 7.5c-1.8-2.4-4.9-3.6-7.9-2.9-3 .7-5.3 3.1-5.9 6.1l-7.7 21c-1.8 4.2 0 9 4.1 11 4.4 1.2 8.9-1.4 10.3-5.7l7.7-21.1c1.5-2.7 1.2-6-.6-8.4zm12 3.9c-2.9.9-5.1 3.4-5.4 6.5l-6.1 21.6c-1.6 4.3.6 9 4.8 10.7 4.5.9 8.9-2.1 9.8-6.5l6.2-21.6c1.3-2.8.8-6-1.2-8.4-2-2.3-5.2-3.2-8.1-2.3zm20.6 5.4c-2.8 1.1-4.8 3.7-5 6.7l-4.7 21.9c-1.3 4.4 1.2 8.9 5.6 10.3 4.5.6 8.7-2.6 9.3-7.1v.2l4.7-22c1.1-2.8.4-6.1-1.7-8.2-2.1-2.2-5.4-2.9-8.2-1.8zm29.1 5.2c-2.3-2-5.6-2.5-8.3-1.2-2.7 1.3-4.5 4.1-4.5 7.1l-3.1 22.2c-.9 4.4 1.9 8.8 6.2 9.8 4.6.4 8.5-3.1 8.8-7.6l3.3-22.2c.9-2.9 0-6.1-2.4-8.1zm20.8 1.9c-2.4-1.8-5.7-2.1-8.4-.6s-4.2 4.4-4 7.4l-1.5 22.4c-.6 4.5 2.4 8.7 6.9 9.4 4.7 0 8.4-3.7 8.4-8.3l1.5-22.4c.7-3-.4-6.1-2.9-7.9zm21.3.6c-2.6-1.7-5.9-1.7-8.4 0-2.6 1.7-3.9 4.7-3.4 7.7v22.4c-.3 4.5 3 8.5 7.6 8.9 4.4-.4 7.8-4.4 7.6-8.9v-22.4c.5-3-.9-6.1-3.4-7.7zM315.2 90.3c.5 6.7 8.4 5 16.6 4.2 16.2-1.5 32.4-1.7 48.6-.8 8 .7 26 6.7 26.3-3.6.1-6.2-10.7-7.6-16.6-8.2-8.9-.8-26.2-.7-32.7-.5-13.7.3-43.1-2.2-42.2 8.9zm116.7-1.4c-7.6-1.1-10.7 2.9-9.8 7.8 2.2 11.3 20.7 1 9.8-7.8zm-136.8 4.2c-1.6-6.8-15.1-6.6-12.8 5.4 5.3 6.6 14.5 2.1 12.8-5.4zm227.8 37.8c-12.4-8.1-25.3-15.5-38.6-22.1-5.8-3-16.7-11.1-22.9-8.3-2.9 1.1-4.7 4.1-4.2 7 1 6.4 12.7 7.6 18.9 10.6 16.3 8.1 31.9 17.6 46.5 28.6 1.5 1.2 4.7 6.4 9.5 5.8 3-.8 5.2-3.3 5.7-6.3.6-5.5-7.6-10.3-14.9-15.3zm-324.7-2c-5 3.4-15.4 9.9-14.6 15.7 1.5 9.3 10.8 3.5 15.2.2 14.7-11.1 30.6-20.5 47.4-27.9 7.7-3.4 26.1-9.3 14.6-18.9-.5 0-5.9.1-5.5-.1-17.3 8.6-39.4 18.8-57.1 31zm-39.5 25.9c-4.3 4.3-2.6 11.7 2.2 12.8 10.4 2.1 10.9-17-2.2-12.8zm398 6.2c-1.9-1.1-4.3-1.2-6.3-.2-1.6.5-3 1.6-3.8 3.1-.8 1.5-.9 3.2-.3 4.8 1.6 6.9 13.6 6.1 13.6-2.2-.1-2.3-1.3-4.3-3.2-5.5zm37.8 38.7c-3.5-5-10.7-16.1-13.3-16.9-2.2-.5-4.4-.3-6.4.7-6.7 3.6-1.5 10.5 2.1 15.1 11.3 14 20.7 29.4 28 45.8 3.3 7.3 4.9 17.6 10.9 18.5 10.6 1.6 7.8-8.5 5-15-7.1-16.9-16-33-26.3-48.2zm-448.4-18.5c-2.1-.6-4.3-.2-6 1.1-11.7 12-25 34.4-34.4 52.9-3.7 7.1-14 25.4-2 26.1 8.1.5 9-11.4 12.3-18.1 8-16.6 17.9-32.2 29.5-46.7 1.9-2.5 5.8-6.8 4.9-11-.7-2-2.2-3.6-4.3-4.3zm470.8 104.9c1.3 7.6 15.5 6.8 13.6-3-.8-4.1-4.9-6.1-9.5-4.1-3 .9-4.8 4-4.1 7.1zm-520.1-7.2c-1.5-1.1-3.4-1.5-5.2-1.1-9.8 2.1-4.4 14.4 2.1 13.5 3.5-1 5.8-4.2 5.7-7.8-.2-1.8-1.1-3.5-2.6-4.6zm546.4 111c1.3-15.9 1.5-31.9.8-47.8-.4-6.3-1.1-21.9-4.4-24.7-4.4-3.8-9 .5-11.2 3.8 3 21.6 3.7 43.5 2.1 65.3-.7 7.2-5.3 20.8 4.5 20.8 5.3-.1 7.4-8.6 8.2-17.4zM82.4 312.8c-4.1 3.2-4.7 19-5.2 27-.4 5.9-.7 16.1-.4 25.5.4 12.7-.3 40.3 11.4 36.8 7-2.2 2.3-15.9 1.9-21.5-1-18.1-.7-36.2.8-54.2.4-3.7 3.5-9.9.2-13.5l.1-.1c-1.7-1.5-7.3-2.6-8.8 0zM633 433.6c1.7-3.6 1.1-9.3-1.4-11.2-7.3-1.2-11.2 1.4-10.5 8.7 2.6 3.9 7.9 5 11.9 2.5zm-546.2.3c7.9 1 11-14.8.2-12.7-9 1.8-4.9 12.1-.2 12.7zm491.3 103.7c7.6 2.6 12.8-9.2 16.1-14.1 8.9-12.2 16.8-25.1 23.7-38.6 3.7-7.4 17.1-32-1.2-26.1-4.8 3.7-6.2 12.3-9.8 19.6-6.4 12.6-13.8 24.8-22.1 36.3-2.7 3.8-12.1 13.5-10.6 18.9 1 1.6 2.3 3 3.9 4zM123 519c1.8 2.8 7.9 17.9 16.3 15.4 8.4-2.5 1.9-10.9-.6-14.4-10.6-14.6-19.7-30.2-27.1-46.6-3.8-8.7-10-26.9-19.6-16.3.2 9.3 4.4 16.5 7.7 23.3 6.7 13.5 14.5 26.4 23.3 38.6zm441.2 42.5c7.5-.8 7.2-16.1-3-12.8-8.4 2.8-4.6 13.5 3 12.8zm-414-3.2c5.9 9.6 19.2-3.3 9.8-9.4-7.6-1.2-10.5 2.3-9.8 9.4zm327.9 56.1c14.3-6.7 28-14.5 41-23.4 4.9-3.3 17.5-9.7 17-15.7-.2-2-5.9-8.3-9.5-5.7-13.5 9.6-34.5 24.9-54.6 33.4-8.9 3.7-20.8 6.5-16.2 15.7l-.1.1c7.5 5.8 15.9-1.1 22.4-4.4zm-283-20.6c13.3 9 27.3 17 41.8 23.8 6.1 2.9 19.6 10.5 22.2 2.7 2.6-7.8-9.4-10.8-15.7-13.7-8.4-3.8-14.9-6.5-20.6-9.8-15.8-8.7-25.6-18.7-37-24.4l.3-.2c-1.9-.4-3.7.1-5.2 1.3s-2.2 3-2.1 4.9c-.4 6.2 11 11.8 16.3 15.4zm232 31.7c1.6 10.4 20.2 3.5 11.2-7-7.1-3.3-12 2.3-11.2 7zm-151.4.8c1 11.5 21.5 3 10.5-7-7.2-1-10.8 2.5-10.5 7zm129.8 4.4c.7-7.4-4.3-6.3-8.7-6.5v-.1h-1.5c-13.2-.2-35.7 2.8-53.4 1.6-8.9-.6-29.6-7.3-27.2 5.2 1.7 7.9 17.1 6.1 27.8 6.8 13.8 1 27.6 1.3 41.4.7 8.4-.6 20.9-1.2 21.6-7.7zm-152.9-470c-1.7-.8-3.6-1-5.4-.3-1.8.7-3.3 1.9-4.1 3.6-1.7 3.5-.2 7.7 3.3 9.4 3.5 1.7 7.7.2 9.4-3.3 1.7-3.5.3-7.7-3.2-9.4zm-87.8 85.4c-1.9.6-3.3 1.9-4.1 3.6-1.7 3.5-.2 7.7 3.3 9.4 3.5 1.7 7.7.2 9.4-3.3 1.7-3.5.3-7.7-3.2-9.4-1.7-.8-3.6-1-5.4-.3zm-29.4 114.4c-1.9.5-3.3 1.8-4.1 3.5-1.7 3.5-.2 7.7 3.3 9.4 3.5 1.7 7.7.2 9.4-3.2 1.7-3.5.3-7.7-3.2-9.4-1.7-.8-3.6-1-5.4-.3zm42.4 105.1c-1.7-.8-3.6-1-5.4-.3-1.8.6-3.3 1.9-4.1 3.6-1.7 3.5-.2 7.7 3.3 9.4 3.5 1.7 7.7.2 9.4-3.3 1.7-3.5.3-7.7-3.2-9.4zm83.4 88.8c1.7-3.4.3-7.7-3.2-9.4-1.7-.8-3.6-1-5.4-.3-1.8.7-3.3 1.8-4.1 3.5-1.7 3.5-.2 7.7 3.3 9.4 3.5 1.7 7.7.2 9.4-3.2zM367 577.5c-1.7-.8-3.6-1-5.4-.4-1.8.6-3.3 1.9-4.1 3.6-1.7 3.5-.2 7.7 3.3 9.4 3.5 1.7 7.7.2 9.4-3.2 1.7-3.5.3-7.7-3.2-9.4zm116-19c3.5 1.7 7.7.3 9.4-3.2 1.7-3.5.3-7.7-3.2-9.4-1.7-.8-3.7-1-5.4-.4-1.8.6-3.3 1.9-4.1 3.6-1.7 3.5-.2 7.7 3.3 9.4zm82.4-101.2c-1.7-.8-3.6-1-5.4-.4-1.8.6-3.3 1.9-4.1 3.6-1.7 3.5-.2 7.7 3.3 9.4 3.5 1.7 7.7.2 9.4-3.2 1.7-3.5.3-7.7-3.2-9.4zm15.9-110.8c-1.7.6-3.3 1.9-4.1 3.6-1.7 3.5-.2 7.7 3.3 9.4 3.5 1.7 7.7.3 9.4-3.2 1.7-3.5.3-7.7-3.2-9.4-1.7-.8-3.7-1-5.4-.4zm-24.9-107.9c-1.7-.8-3.6-1-5.4-.3-1.9.6-3.3 1.9-4.1 3.6-1.7 3.5-.2 7.7 3.3 9.4 3.5 1.7 7.7.2 9.4-3.3 1.7-3.5.3-7.7-3.2-9.4zm-76.4-80c-3.4-1.8-7.6-.4-9.4 3.1-1.3 2.5-.9 5.6.9 7.8 1.9 2.2 4.8 3 7.6 2.1 2.7-.9 4.6-3.3 4.8-6.2.2-2.8-1.3-5.5-3.9-6.8zm-122.4-16.3c3.5 1.7 7.7.2 9.4-3.3 1.7-3.5.3-7.7-3.2-9.4-1.7-.8-3.6-1-5.4-.3-1.9.6-3.3 1.9-4.1 3.6-1.7 3.5-.2 7.7 3.3 9.4zM238.1 280.8h.2c6.7-3.7 13.3-7 20.1-9.8 6.7-2.7 13.8-5.3 21.1-7.7h.3c.8-.3 1.4-.9 1.8-1.8.4-.9.4-1.8 0-2.6l-.3.3c-.4-.9-1.2-1.6-2.2-1.9l-13.1-4-8.1-2.5c-2.5-.7-5.1-.5-7.4.6l-.4.2h-.4c-2.3 1-4.2 2.7-5.4 4.8l-3.9 7.5-6.5 12.2c-.8 1.3-.7 2.9.3 4s2.6 1.4 3.9.7zM439.4 260c-.1 1.5.8 2.8 2.2 3.3h.3c7.2 2.3 14.2 4.8 20.9 7.6 6.7 2.9 13.4 6.2 20.1 9.8h.2c.8.4 1.8.4 2.6.1.8-.3 1.5-1 1.8-1.8.4-.9.3-2-.2-2.9l-6.4-12.2-4.2-7.7c-1.3-2.3-3.2-4-5.6-4.9h-.4l-.4-.2c-2.3-1-4.9-1.3-7.4-.6l-8.1 2.5-13.1 4h.3c-1.4.3-2.5 1.5-2.6 3zm-40.8 219.7c-4.6-.9-9.3-1.3-14-1.3-5.6 2.5-7.5 8.6-10.6 13.6-3.3-3.1-8.3-13.5-13.9-13.3-2.8.1-5.5 3.9-7.3 6-2.4 2.8-4.5 4.8-6.3 7.3-3-5.1-5.2-13.5-12.4-14.1-4 .4-8 .9-11.9 1.7 1.7 5.6 7 7.1 10.3 10.6 7.1 7.3 13.3 15.3 18.6 23.9 1.8 2.8 5.1 12.3 9 12.3 3.9.1 7.3-8.6 9.3-11.9 5.3-8.6 11.6-16.6 18.6-23.9 3.5-3.5 8.9-5.3 10.6-10.9zM360.8 504c-4.6-3.6-4-16.2-.7-20.6 5 2.9 4 16.7.7 20.6zm102.4-22.6c2.5.7 5.1.5 7.4-.6l.4-.2h.4c2.4-1 4.3-2.7 5.6-4.9l4-7.6 6.2-12.1c.5-.9.5-2 0-2.9-.3-.8-1-1.5-1.8-1.8-.9-.3-1.8-.3-2.6.1h-.2c-6.7 3.7-13.6 7-20.1 9.8-6.7 2.8-13.6 5.4-20.9 7.7h-.3c-.8.3-1.4.9-1.8 1.8-.4.9-.4 1.8 0 2.6l.3-.3c.4.9 1.2 1.6 2.2 1.9l13.1 4 8.1 2.5zm-146.3 15.4-3.9-7.5c-1.2-2.2-3.2-4-5.6-4.9h-.4l-.4-.2c-2.3-1-4.9-1.3-7.4-.6l-8.2 2.5-13.1 4 .2-.2c-1.4.3-2.5 1.5-2.6 3-.1 1.5.8 2.8 2.2 3.3h.3c7.2 2.3 14.2 4.8 20.9 7.6 6.7 3 13.4 6.2 20.1 9.8h.2c1.3.7 2.9.4 3.9-.7.9-1.1 1.1-2.7.3-3.9l-6.5-12.2zm-37.6-21.5c1.5-.3 2.5-1.3 2.6-2.8.1-1.5-.8-2.8-2.2-3.3h-.3c-7.2-2.4-14.2-4.7-20.9-7.7-6.7-3-13.4-6.2-20.1-9.8h-.3c-1.3-.7-2.9-.4-3.9.7-.9 1.1-1.1 2.7-.3 3.9l6.4 12.2 4 7.6c1.3 2.3 3.2 4 5.6 4.9h.4l.4.2c2.3 1 4.9 1.2 7.4.6l8.1-2.5 13.1-4zm163.7 15-13.1-4-8.2-2.5c-2.5-.7-5.1-.5-7.4.6l-.4.2h-.4c-2.4 1-4.3 2.7-5.6 4.9L404 497l-6.4 12.2c-.5.9-.6 2-.2 2.9.3.8 1 1.5 1.8 1.8.9.3 1.8.3 2.6-.1h.2c6.7-3.7 13.3-7.1 20.1-9.8 6.8-2.7 13.7-5.3 21-7.6h.3c.8-.3 1.4-.9 1.8-1.8.4-.9.4-1.8 0-2.6-.4-.9-1.2-1.6-2.2-1.7zm-92.3-203-21.6 10.1-.3.2c-1 .5-1.6 1.5-1.6 2.6 0 .8.3 1.6.9 2.1.6.8 1.4 1.1 2.1 1.1h60.5c1.4 0 2.6-1 2.9-2.4.3-1.4-.4-2.8-1.7-3.4l-21.6-10.2c-3.1-1.7-6.4-2.9-9.8-3.8-3.4.8-6.7 2.1-9.8 3.7zm40.2 135.1-.1-.1h-60.5c-1.4 0-2.6 1-2.9 2.4-.3 1.4.4 2.8 1.7 3.4l21.6 10.2c3.1 1.7 6.4 2.9 9.8 3.7 3.4-.8 6.7-2 9.8-3.7l21.6-10.2h.3c1.2-.6 1.9-2 1.6-3.4-.3-1.4-1.5-2.3-2.9-2.3zM405 110.3c-1.4-.3-2.9-.1-4.1.7-1.2.8-2.1 2-2.4 3.4-.3 1.2-.1 2.6.5 3.8l12.6 20.3c1.3 2 3.3 3.5 5.7 4 2.3.5 4.8.1 6.9-1.1l19.9-12.4c1.8-1.2 2.8-3.3 2.4-5.4-.4-2.1-1.9-3.9-3.9-4.4h-.3c-.6-.1-1.2-.1-1.9 0-11.8 1.5-23.8-1.4-33.7-8.1-.5-.3-1.1-.6-1.7-.8zm-19.2 65.6c-1.9 1.1-3 3.3-2.6 5.5.3 2.2 2 4 4.1 4.5h.3c.6.1 1.2.1 1.9 0 5.8-.8 11.8-.5 17.5.8 5.7 1.4 11.2 3.7 16.1 7 .5.3 1.1.6 1.7.8 2.1.5 4.3-.3 5.5-2 1.3-1.7 1.5-4 .4-5.9l.2.1-12.6-20.3c-1.3-2-3.3-3.5-5.7-4-2.3-.5-4.8-.1-6.9 1.1l-19.9 12.4zm-12.7-13.5c-.3 1.4-.1 2.9.7 4.1.8 1.2 2 2.1 3.4 2.4 1.3.3 2.6.1 3.8-.5h-.3l20.3-12.6c4.2-2.7 5.5-8.3 2.9-12.5l-12.4-19.9c-1.2-1.8-3.3-2.8-5.4-2.4-2.1.4-3.9 1.9-4.4 3.9v.3c-.1.6-.1 1.3 0 1.9 1.6 11.8-1.2 23.7-7.8 33.6-.3.5-.6 1.1-.8 1.7zm55.8-13.3c-2 1.3-3.5 3.3-4 5.7-.5 2.4-.1 4.8 1.1 6.9l12.5 19.9c.7 1.3 2 2.2 3.4 2.6 2.9.7 5.8-1.1 6.5-4.1v-.3c.1-.6.1-1.3 0-1.9-1.6-11.8 1.2-23.7 7.8-33.6.3-.5.6-1.1.8-1.7.5-2.1-.3-4.3-2-5.5-1.7-1.3-4-1.5-5.9-.4l.1-.2-20.3 12.6zM417 159.2c3.8-1.1 5.8-5 4.7-8.8-1.1-3.7-5-5.8-8.8-4.7-1.8.5-3.3 1.8-4.2 3.4-.9 1.6-1 3.6-.5 5.4 1.1 3.7 5 5.8 8.8 4.7zm-79.5 388.2c1.3-.8 2.2-2 2.6-3.5.3-1.4.1-2.9-.7-4.1-.8-1.2-2-2.1-3.4-2.4h-.3c-.6-.1-1.3-.1-1.9 0-5.8.8-11.8.5-17.5-.9-5.8-1.4-11.2-3.8-16.1-7.1-.5-.3-1.1-.6-1.7-.8-1.4-.3-2.9-.1-4.1.7-1.2.8-2.1 2-2.4 3.4-.3 1.3-.1 2.7.4 3.8l12.6 20.4c1.3 2 3.3 3.5 5.7 4 2.3.5 4.8.1 6.9-1.1l19.9-12.4zm-20.9 64.4c.5.3 1.1.6 1.7.8 1.4.3 2.9.1 4.1-.7 1.2-.8 2.1-2 2.4-3.4.3-1.3.1-2.6-.5-3.8l.1.3-12.6-20.3c-1.3-2-3.3-3.5-5.7-4-2.3-.5-4.8-.1-6.9 1.1l-19.9 12.4c-1.8 1.2-2.8 3.3-2.4 5.4.4 2.1 1.9 3.9 3.9 4.4h.3c.6.1 1.3.1 1.9 0 11.8-1.6 23.7 1.2 33.6 7.8zm-22.1-37.6c2-1.3 3.5-3.3 4-5.7.5-2.4.1-4.8-1.1-6.9L285 541.7c-1.1-1.9-3.3-3-5.5-2.6-2.2.3-4 2-4.5 4.1v.3c-.1.6-.1 1.2 0 1.9 1.5 11.8-1.3 23.8-7.8 33.7-.3.5-.6 1.1-.8 1.7-.7 2.9 1.1 5.8 4.1 6.5 1.3.3 2.6.1 3.8-.6l-.1.1 20.3-12.6zm55.8-13.3c.5-2.1-.2-4.3-1.9-5.6-1.7-1.3-4-1.5-5.9-.4l.1-.1-20.3 12.6c-2.1 1.3-3.5 3.3-4.1 5.7-.6 2.4-.1 4.8 1.2 6.9l12.4 19.9c1.1 1.8 3.3 2.8 5.4 2.5 2.1-.3 3.9-1.9 4.4-4v-.3c.1-.6.1-1.3 0-1.9-1.5-11.8 1.3-23.7 7.9-33.6.3-.5.6-1.1.8-1.7zm-44 3.1c-3.7 1.2-5.8 5.1-4.6 8.8.8 2.7 3.2 4.7 6 5 2.8.3 5.5-1.2 6.9-3.7 1.3-2.5 1-5.6-.8-7.8s-4.8-3.1-7.5-2.3zm221.6-395.1c-.3-.6-.6-1.1-1-1.5-1.5-1.5-3.8-1.9-5.8-1.1-2 .8-3.3 2.7-3.3 4.9l.5 23.9c.1 2.4 1.1 4.7 2.8 6.4 1.7 1.7 4.1 2.6 6.5 2.5l23.4-.5c1.5 0 2.9-.6 4-1.7 1-1 1.5-2.4 1.5-3.9 0-1.4-.6-2.8-1.7-3.8l-.2-.2c-.5-.5-1.1-.9-1.8-1.1-10.9-4.7-19.8-13.2-24.9-23.9zm-27.8 79.6c.3.6.6 1.1 1 1.5 1 1 2.4 1.5 3.9 1.5 1.4 0 2.8-.6 3.8-1.7.9-1 1.4-2.2 1.5-3.5l.1.1-.5-23.9c-.1-2.4-1.1-4.7-2.8-6.4-1.7-1.7-4.1-2.6-6.5-2.5l-23.4.5c-1.5 0-2.9.6-4 1.7-1 1-1.5 2.4-1.5 3.9 0 1.4.6 2.8 1.7 3.8l.2.2c.5.4 1 .7 1.6 1 10.9 4.7 19.8 13.1 24.9 23.8zm-27.3-52.7c-1 1-1.6 2.4-1.6 3.8s.6 2.8 1.6 3.8 2.3 1.6 3.7 1.7l23.9-.5c2.4-.1 4.7-1.1 6.4-2.8 1.7-1.7 2.6-4.1 2.5-6.5l-.5-23.4c0-2.2-1.3-4.2-3.4-5.1-2.1-.8-4.4-.3-6 1.3l-.2.2c-.4.5-.7 1-1 1.6-4.7 10.9-13.2 19.8-23.9 24.9-.6.3-1.1.6-1.5 1zm49.9 54.8c2 .8 4.4.3 5.9-1.2l.2-.2c.4-.5.8-1 1-1.6 4.7-10.9 13.2-19.8 23.9-25 .6-.3 1.1-.6 1.5-1 1-1 1.6-2.4 1.6-3.8s-.6-2.8-1.6-3.8c-.8-.9-2.1-1.5-3.5-1.6l-24 .5c-2.4.1-4.7 1.1-6.4 2.8-1.7 1.7-2.6 4.1-2.5 6.5l.5 23.4c0 2.2 1.3 4.2 3.4 5zm-5-35.8c2.4-1.5 3.7-4.3 3.3-7.1-.4-2.8-2.5-5.1-5.3-5.8-3.7-.9-7.4 1.4-8.4 5.2-.7 2.8.4 5.7 2.6 7.3 2.2 1.6 5.4 1.8 7.8.4zM249.8 499.5c-.5-.4-1-.7-1.6-1-10.9-4.7-19.8-13.2-24.9-23.9-.3-.6-.6-1.1-1-1.5-1.5-1.5-3.8-1.9-5.8-1.1-2.1.9-3.4 2.7-3.5 4.8l.5 23.9c0 2.4 1 4.7 2.8 6.4 1.7 1.7 4.1 2.6 6.5 2.5l23.4-.5c2.2 0 4.2-1.3 5.1-3.4.8-2.1.3-4.4-1.3-6l-.2-.2zm-81.1 29.8c.5.4 1 .7 1.6 1 10.9 4.7 19.8 13.2 24.9 23.9.3.6.6 1.1 1 1.5 1.5 1.5 3.8 1.9 5.8 1.1 2.1-.8 3.4-2.7 3.5-4.8l-.5-23.9c-.1-2.4-1.1-4.7-2.8-6.4-1.7-1.7-4.1-2.6-6.5-2.5l-23.4.5c-2.2 0-4.2 1.3-5.1 3.4-.8 2.1-.3 4.4 1.3 6l.2.2zm3-18.6 23.9-.5c5-.1 9-4.3 8.9-9.3l-.5-23.4c0-1.5-.6-2.9-1.7-4-1-1-2.4-1.5-3.9-1.5-1.4 0-2.8.6-3.8 1.7l-.2.2c-.4.5-.7 1-1 1.6-4.7 10.9-13.2 19.8-23.9 24.9-.6.3-1.1.6-1.5 1-1 1-1.5 2.4-1.5 3.9 0 1.4.6 2.8 1.7 3.8.9 1 2.2 1.5 3.5 1.6zm44.5 44.6c1 1 2.4 1.5 3.9 1.5s2.8-.6 3.8-1.7l.2-.2c.4-.5.7-1 1-1.6 4.7-10.9 13.1-19.8 23.8-24.9.6-.3 1.1-.6 1.5-1 1.5-1.5 2-3.8 1.1-5.8-.8-2-2.7-3.3-4.8-3.3l.2-.2-24 .5c-2.4.1-4.7 1.1-6.4 2.8-1.7 1.7-2.6 4.1-2.5 6.5l.5 23.4c0 1.5.6 2.9 1.7 4zm-5.3-47.8c-1.8-.4-3.7-.1-5.3.8-1.6 1.1-2.8 2.6-3.2 4.4-.9 3.8 1.4 7.6 5.2 8.5 3.8.9 7.6-1.4 8.5-5.2.9-3.8-1.4-7.6-5.2-8.5zm388.1-239c-.4-1.4-1.4-2.6-2.7-3.3-1.3-.7-2.8-.8-4.2-.3-1.3.5-2.3 1.3-2.9 2.5l-10.9 21.3c-2.3 4.5-.5 9.9 3.9 12.2l20.9 10.6c1.3.7 2.9.9 4.3.4 1.4-.4 2.5-1.4 3.1-2.7.6-1.3.8-2.8.3-4.1v-.3c-.2-.6-.5-1.1-.9-1.6-3.7-4.6-6.5-9.8-8.3-15.5-1.8-5.6-2.7-11.5-2.4-17.4 0-.6 0-1.2-.2-1.8zm-72.5 25.9c3.7 4.6 6.5 9.8 8.3 15.4 1.8 5.6 2.6 11.5 2.4 17.4 0 .6 0 1.3.2 1.9.4 1.4 1.4 2.5 2.7 3.2 1.3.7 2.8.8 4.1.3 1.2-.4 2.3-1.3 3-2.5l10.9-21.3c1.1-2.1 1.3-4.6.5-6.9-.8-2.3-2.4-4.2-4.5-5.3L533.3 286c-2-1.1-4.4-.8-6.1.6-1.7 1.4-2.4 3.8-1.6 5.9v.3c.2.6.6 1.1.9 1.6zm13.4-26.9c-.6 0-1.3 0-1.9.2-1.4.4-2.5 1.4-3.2 2.7-.7 1.3-.8 2.8-.3 4.2.4 1.3 1.3 2.3 2.4 3l-.1.2 21.3 10.8c2.1 1.1 4.6 1.3 6.9.5 2.3-.7 4.2-2.4 5.3-4.5l10.6-20.9c.7-1.3.9-2.9.4-4.3-.4-1.4-1.4-2.5-2.7-3.2-1.3-.7-2.8-.8-4.1-.3h-.3c-.6.2-1.1.6-1.6.9-9.2 7.4-20.9 11.2-32.7 10.7zm16 72.6c1.5 1.7 3.9 2.4 6 1.6h.3c.6-.2 1.1-.6 1.6-.9 9.2-7.4 20.9-11.2 32.7-10.7.6 0 1.2 0 1.8-.2 1.4-.4 2.6-1.4 3.3-2.7.7-1.3.8-2.8.3-4.2-.4-1.3-1.3-2.3-2.4-3l.1-.2-21.4-10.8c-2.2-1.1-4.7-1.3-7-.6-2.3.7-4.2 2.4-5.3 4.6l-10.6 20.9c-1.1 2-.9 4.4.6 6.2zm12.7-34.1c2.9-.1 5.4-2 6.3-4.8.9-2.7.1-5.7-2-7.6-3-2.5-7.3-2.2-9.9.5-2 2.1-2.4 5.2-1.2 7.8 1.2 2.6 3.9 4.2 6.8 4.1zM169.2 426.5l20.8 10.6c2 1.1 4.4.8 6.1-.6 1.7-1.5 2.4-3.8 1.6-5.9v-.3c-.2-.6-.5-1.1-.9-1.6-7.4-9.2-11.2-20.9-10.7-32.7 0-.6 0-1.3-.2-1.9-.6-2-2.4-3.5-4.6-3.7-2.2-.2-4.1.9-5.1 2.6l-10.9 21.3c-1.1 2.1-1.3 4.6-.6 6.9.7 2.3 2.4 4.2 4.5 5.3zm-44.9 28.2c.4 1.4 1.4 2.6 2.7 3.3 1.3.7 2.9.8 4.3.3 1.2-.5 2.3-1.4 2.9-2.5l10.9-21.3c2.3-4.5.5-9.9-4-12.2l-20.9-10.6c-2-1.1-4.4-.8-6.1.6-1.7 1.4-2.4 3.8-1.6 5.9v.3c.2.6.6 1.1.9 1.6 7.4 9.2 11.2 20.9 10.7 32.7 0 .6.1 1.3.2 1.9zm44.1-69.6c-.4-1.4-1.4-2.5-2.7-3.2-1.3-.7-2.8-.8-4.2-.3h-.3c-.6.2-1.1.6-1.6.9-9.2 7.4-20.9 11.2-32.7 10.7-.6 0-1.3 0-1.9.2-2.9.9-4.4 4-3.5 6.9.4 1.3 1.3 2.3 2.5 2.9l-.2.2 21.3 10.9c2.2 1.1 4.7 1.3 7 .6 2.3-.8 4.2-2.4 5.3-4.6l10.6-20.9c.7-1.3.9-2.9.4-4.3zm15.2 70.6c.6 0 1.2 0 1.8-.2 2.1-.6 3.5-2.4 3.8-4.5.3-2.1-.8-4.2-2.7-5.3l.1-.3-21.4-10.8c-2.1-1.1-4.6-1.3-6.9-.5-2.3.7-4.2 2.4-5.3 4.5l-10.6 20.9c-1.1 2-.9 4.4.6 6.2 1.5 1.7 3.9 2.4 6 1.6h.3c.6-.2 1.1-.5 1.6-.9 9.2-7.4 20.9-11.2 32.7-10.7zm-33.7-36c-1.9 2.1-2.4 5.2-1.2 7.8 1.2 2.6 3.9 4.2 6.7 4 2.9-.2 5.3-2 6.3-4.7.9-2.7.1-5.7-2-7.6-2.9-2.5-7.2-2.3-9.8.5zm464.2-22.1c.5-2.1-.4-4.3-2.1-5.5-1.8-1.2-4.1-1.3-5.9-.2l-20 13.1c-4.2 2.8-5.3 8.4-2.6 12.6l13.1 19.6c1.2 1.8 3.4 2.7 5.5 2.3 2.1-.4 3.8-2 4.3-4.1v-.3c.1-.6.1-1.3 0-1.9-1.9-11.7.6-23.8 6.9-33.9.3-.5.6-1.1.8-1.7zm-51.6 9.3c.5-2.4 0-4.8-1.3-6.8L548 380.5c-1.2-1.8-3.3-2.8-5.5-2.4-2.1.4-3.8 2-4.3 4.2v.3c-.1.6-.1 1.3 0 1.9 1.9 11.8-.6 23.8-6.9 33.9-.3.5-.6 1.1-.8 1.7-.3 1.4-.1 2.9.7 4.2.8 1.2 2.1 2.1 3.5 2.4 1.3.3 2.7 0 3.8-.7l.1-.2 20-13.1c2-1.3 3.4-3.4 3.9-5.8zm38.2-22.2c1.3-.8 2.2-2.1 2.5-3.5.3-1.4.1-2.9-.7-4.2-.8-1.2-2.1-2.1-3.5-2.4h-.3c-.6-.1-1.2-.1-1.9 0-11.7 1.9-23.8-.6-33.8-6.9-.5-.3-1.1-.6-1.7-.8-1.4-.3-2.9-.1-4.2.7-1.2.8-2.1 2.1-2.4 3.5-.3 1.4-.1 2.8.7 4l13.1 19.9c1.3 2 3.4 3.4 5.8 3.9s4.8 0 6.8-1.3l19.6-12.9zm-17.1 65.9c2.1.5 4.3-.4 5.5-2.1 1.1-1.7 1.2-4.1.1-5.9l-13.1-20c-2.8-4.2-8.4-5.3-12.6-2.5L544 433.2c-1.8 1.2-2.8 3.3-2.4 5.5.4 2.1 2 3.8 4.2 4.3h.3c.6.1 1.3.1 1.9 0 11.7-1.9 23.8.6 33.9 6.9.5.3 1.1.6 1.7.7zm-13.5-48.4c-3.7 1.2-5.7 5.2-4.4 8.9 1.2 3.7 5.2 5.7 8.9 4.4 3.7-1.3 5.7-5.2 4.4-8.9-1.3-3.7-5.3-5.6-8.9-4.4zm-407.8-79.1 13.1 19.6c1.2 1.8 3.4 2.7 5.5 2.3 2.1-.4 3.8-2 4.3-4.1v-.3c.1-.6.1-1.2 0-1.9-1.9-11.7.6-23.8 6.9-33.9.3-.5.6-1.1.8-1.7.5-2.1-.4-4.3-2.1-5.5a5.65 5.65 0 0 0-6-.2l-20 13.1c-4.2 2.8-5.3 8.4-2.5 12.6zm-53.1 2.2c-.3 1.4-.1 2.9.7 4.2.8 1.2 2.1 2.1 3.5 2.4 1.4.2 2.8 0 3.9-.6l20-13.1c4.2-2.8 5.3-8.4 2.5-12.6L126.7 286c-1.2-1.8-3.4-2.7-5.5-2.3-2.1.4-3.8 2-4.3 4.1v.3c-.1.6-.1 1.3 0 1.9 1.8 11.7-.6 23.6-6.9 33.6-.3.5-.6 1.1-.8 1.7zm30.6-52.7c-1.4-.3-2.9-.1-4.2.7-1.3.8-2.1 2.1-2.4 3.5-.3 1.3 0 2.6.7 3.8h.2l13.1 20c1.3 2 3.4 3.4 5.8 3.9s4.8 0 6.8-1.3l19.6-13.1c1.8-1.2 2.7-3.4 2.3-5.5-.4-2.1-2-3.8-4.1-4.3h-.3c-.6-.1-1.3-.1-1.9 0-11.7 1.9-23.8-.6-33.9-6.9-.5-.3-1.1-.6-1.7-.8zm-17.1 66c-1.8 1.2-2.7 3.4-2.3 5.5.4 2.1 2 3.8 4.1 4.3h.3c.6.1 1.2.1 1.9 0 11.7-1.9 23.8.6 33.9 6.9.5.3 1.1.6 1.7.7 2.1.5 4.3-.4 5.5-2.1 1.2-1.7 1.3-4 .2-5.8l-13.1-20c-2.8-4.2-8.4-5.3-12.6-2.6l-19.6 13.1zm30.6-17.6c3.7-1.2 5.7-5.2 4.4-8.9-.6-1.8-1.9-3.2-3.5-4.1-1.7-.8-3.6-.9-5.4-.3-3.7 1.2-5.7 5.2-4.4 8.9 1.2 3.7 5.2 5.7 8.9 4.4zm385.5 225.1c.4-.5.7-1.1.9-1.7 2.1-5.5 5.1-10.6 8.9-15.1 3.9-4.5 8.5-8.2 13.7-11 .5-.3 1-.7 1.5-1.1 1.4-1.6 1.7-3.9.9-5.8-.9-1.9-2.8-3.2-5-3.1v-.3l-23.9 1.7c-2.4.2-4.7 1.3-6.2 3.2-1.6 1.8-2.4 4.2-2.2 6.7l1.7 23.4c.1 1.5.7 2.9 1.9 3.9 1.1.9 2.5 1.4 3.9 1.3 1.4-.1 2.8-.8 3.7-1.9l.2-.2zm-54.6-41.8 23.9-1.7c2.4-.2 4.7-1.3 6.3-3.1 1.6-1.8 2.4-4.2 2.1-6.7l-1.7-23.4c-.1-2.2-1.5-4.2-3.6-4.9a5.5 5.5 0 0 0-5.9 1.6l-.2.2c-.4.5-.7 1.1-.9 1.7-4.1 11.2-12.1 20.5-22.6 26.1-.5.3-1 .7-1.5 1.1-2 2.3-1.7 5.7.6 7.6 1 1 2.3 1.5 3.5 1.5zm51.1-3.6 23.3-1.7c1.5 0 2.9-.7 3.9-1.9 2-2.3 1.7-5.7-.6-7.6l-.2-.2c-.5-.4-1.1-.7-1.7-.9-11.2-4.1-20.5-12.1-26.1-22.6-.3-.5-.7-1-1.1-1.5-1.6-1.4-3.9-1.7-5.8-.8-1.9.9-3.2 2.9-3.1 5l-.1-.1 1.7 23.9c.2 2.4 1.3 4.7 3.1 6.3 1.8 1.6 4.2 2.4 6.7 2.1zM510 546.4c.3.5.7 1 1.1 1.5 1.6 1.4 3.9 1.8 5.8.9 2-.9 3.2-2.8 3.3-4.9l-1.7-23.9c-.2-2.4-1.3-4.7-3.1-6.3-1.8-1.6-4.2-2.4-6.7-2.2l-23.4 1.7c-2.2.1-4.2 1.5-4.9 3.6a5.5 5.5 0 0 0 1.6 5.9l.2.2c.5.4 1.1.7 1.7.9 11.2 4.1 20.5 12.2 26.1 22.6zm19.1-39c.4-1.8 0-3.7-1.1-5.3-1.1-1.5-2.7-2.5-4.5-2.9-3.8-.7-7.5 1.8-8.2 5.6-.7 3.8 1.8 7.5 5.6 8.2 3.8.7 7.5-1.8 8.2-5.6zm-286-279.2c1.5-1.6 1.9-3.9 1.1-5.9-.8-2-2.9-3.4-5.1-3.3l-23.9 1.7c-2.4.2-4.7 1.3-6.3 3.1-1.6 1.8-2.4 4.2-2.2 6.7l1.7 23.4c.1 1.5.7 2.9 1.9 3.9 2.3 2 5.7 1.7 7.6-.6l.2-.2c.4-.5.7-1 .9-1.6 4.1-11.2 12.2-20.5 22.6-26.1.5-.3 1-.7 1.5-1.1zM161 205c-.5.3-1.1.7-1.5 1.1-.9 1.1-1.4 2.5-1.3 3.9.1 1.4.8 2.8 1.9 3.7 1 1 2.3 1.5 3.5 1.5l23.9-1.7c2.4-.2 4.7-1.3 6.3-3.1 1.6-1.8 2.4-4.2 2.1-6.7l-1.7-23.4c-.1-1.5-.7-2.9-1.9-3.9-1.1-.9-2.5-1.4-3.9-1.3-1.4.1-2.8.8-3.7 1.9l-.2.2c-.4.5-.7 1.1-.9 1.7-4.1 11.2-12.2 20.5-22.6 26.1zm42.2-25.6zm37.9 20.7c-.5-.4-1.1-.6-1.7-.8-11.2-4.1-20.5-12.2-26.1-22.6-.3-.5-.7-1-1.1-1.5-1.1-.9-2.5-1.4-4-1.3-1.4.1-2.8.8-3.7 1.9-.9 1-1.3 2.3-1.3 3.6l1.7 23.8c.2 2.4 1.3 4.7 3.2 6.2 1.8 1.6 4.2 2.4 6.7 2.2l23.3-1.7c2.2-.1 4.1-1.6 4.8-3.7.7-2.1.1-4.4-1.6-5.9l-.2-.2zm-51.8 57.4c.3.5.7 1 1.1 1.5 1.6 1.5 3.9 1.9 5.9 1 2.1-.9 3.3-2.9 3.3-5.1l-1.7-23.9c-.2-2.4-1.3-4.7-3.2-6.2-1.9-1.5-4.2-2.4-6.7-2.2l-23.4 1.7c-2.2.1-4.2 1.5-4.9 3.6a5.5 5.5 0 0 0 1.6 5.9l.2.2c.5.4 1.1.7 1.7.9 11.2 4.1 20.5 12.2 26.1 22.6zm6.2-44.3c-1.6 2.4-1.6 5.5 0 7.8 1.6 2.4 4.4 3.5 7.2 3 2.8-.6 5-2.8 5.5-5.5.8-3.9-1.7-7.6-5.5-8.3-2.8-.5-5.6.6-7.2 3zm223.2 397.6c.6-.2 1.1-.5 1.6-.9 9.3-7.4 21-11.2 32.8-10.7.6 0 1.2 0 1.8-.2 2.1-.6 3.5-2.4 3.8-4.5.3-2.2-.8-4.3-2.7-5.4l-21.3-10.9c-2.1-1.1-4.6-1.3-6.9-.5-2.3.7-4.2 2.4-5.3 4.5l-10.6 20.9c-1.1 2-.8 4.4.6 6.1 1.4 1.7 3.8 2.4 5.9 1.6h.3zm19-81.9c-.4-1.4-1.4-2.5-2.7-3.2-1.3-.7-2.8-.8-4.2-.3h-.3c-.6.2-1.1.6-1.6.9-9.2 7.4-20.8 11.2-32.7 10.7-.6 0-1.2.1-1.8.2-2.8.9-4.4 4-3.5 6.8.4 1.2 1.3 2.3 2.4 2.9l-.1.2 21.3 10.9c2.1 1.1 4.6 1.3 6.9.6 2.3-.7 4.2-2.4 5.3-4.5l10.6-20.9c.7-1.3.9-2.9.4-4.3zm1.1 41.3 20.9 10.6c2 1.1 4.4.8 6.1-.6 1.7-1.4 2.4-3.8 1.6-5.9v-.3c-.2-.6-.6-1.1-.9-1.6-3.7-4.6-6.5-9.8-8.3-15.4-1.8-5.6-2.7-11.5-2.4-17.4 0-.6 0-1.3-.2-1.9-.4-1.4-1.4-2.5-2.7-3.2-1.3-.7-2.8-.8-4.1-.3-1.3.4-2.3 1.3-3 2.4l-.2.1-10.8 21.3c-1.1 2.2-1.3 4.7-.5 6.9.8 2.3 2.4 4.2 4.5 5.3zm-45.3 28.2c.6 2 2.4 3.5 4.6 3.7 2.1.2 4.2-.8 5.3-2.7l.2.1 10.8-21.3c1.1-2.1 1.3-4.6.5-6.9-.7-2.3-2.4-4.2-4.5-5.3l-20.9-10.6c-2-1.1-4.4-.9-6.2.6-1.7 1.5-2.4 3.9-1.6 6v.3c.2.6.6 1.1.9 1.6 7.4 9.2 11.2 20.9 10.7 32.7 0 .6 0 1.2.2 1.8zm28-36.8c-2.6 1.2-4.2 3.9-4 6.7.2 2.9 2 5.3 4.7 6.3 2.7.9 5.7.1 7.6-2 2.5-2.8 2.3-7.2-.5-9.8-2.1-1.9-5.2-2.4-7.8-1.2zM285.6 194.4c.4 1.4 1.4 2.5 2.7 3.1 1.3.6 2.8.8 4.1.3h.3c.6-.2 1.1-.5 1.6-.9 9.2-7.4 20.9-11.2 32.7-10.7.6 0 1.2 0 1.8-.2 2-.7 3.5-2.4 3.7-4.6.2-2.2-.8-4.2-2.7-5.2l.4-.1-21.3-10.9c-2.1-1.1-4.6-1.3-6.9-.5-2.3.7-4.2 2.4-5.3 4.5L286 190.1c-.7 1.3-.9 2.9-.4 4.3zm-15.2-70.5c-.6 0-1.3.1-1.9.3-2.8.9-4.4 4-3.5 6.8.5 1.3 1.3 2.3 2.4 3l21.3 10.9c2.1 1.1 4.6 1.3 6.9.5 2.3-.7 4.2-2.4 5.3-4.5l10.6-20.9c1.1-2 .8-4.4-.6-6.1-1.5-1.7-3.8-2.4-5.9-1.6h-.3c-.6.2-1.1.6-1.6.9-9.2 7.4-20.9 11.2-32.7 10.7zm59.3.9c-.4-1.4-1.4-2.5-2.7-3.2-1.3-.7-2.8-.8-4.2-.3-1.2.4-2.3 1.3-2.9 2.4h-.1L309 145c-1.1 2.1-1.3 4.6-.5 6.9.8 2.3 2.4 4.2 4.5 5.3l20.9 10.6c2 1.1 4.4.8 6.1-.6 1.7-1.5 2.4-3.8 1.6-5.9v-.3c-.3-.6-.6-1.1-1-1.6-7.4-9.2-11.2-20.9-10.7-32.7 0-.6 0-1.3-.2-1.9zm-45 28.2-20.9-10.6c-1.3-.7-2.9-.9-4.3-.4-2.8.9-4.4 4-3.5 6.9v.3c.2.6.6 1.1.9 1.6 7.4 9.2 11.2 20.9 10.7 32.7 0 .6 0 1.2.2 1.8.4 1.4 1.4 2.5 2.7 3.2 1.3.7 2.8.8 4.1.3 1.3-.4 2.3-1.3 3-2.4l.2.1 10.9-21.3c1.1-2.1 1.3-4.6.5-6.9-.7-2.3-2.4-4.2-4.5-5.3zm19.3 6.7c2.5-2.9 2.3-7.2-.5-9.8-2.1-1.9-5.2-2.4-7.8-1.2-2.6 1.2-4.2 3.9-4 6.7.2 2.9 2 5.3 4.7 6.3 2.7.9 5.7.1 7.6-2z" style="stroke:none;stroke-width:1;stroke-dasharray:none;stroke-linecap:butt;stroke-dashoffset:0;stroke-linejoin:miter;stroke-miterlimit:4;fill:#000;fill-rule:nonzero;opacity:1" transform="matrix(1.42 0 0 1.42 .09 .8)" vector-effect="non-scaling-stroke"/>
</svg>
